<svg width="42" height="45" viewBox="0 0 42 45" fill="none" xmlns="http://www.w3.org/2000/svg">
<path d="M12 28C8.87548 28.9458 7.25262 29.1054 4.5 29C6.72735 29.9404 8.86182 30.2056 15 30V31V39.5C16.3489 42.4001 17.5201 43.5527 21 44C23.8596 43.5985 25.1444 42.7717 26.5 39.5V30H35C38.8009 29.2612 39.8519 27.9281 40.5 24.5C39.8785 21.3632 39.1203 20.4846 37.5 19.5H33L12 28Z" fill="#B1154E" stroke="#B1154E"/>
<path d="M15.4999 4.99999V14L5.49985 14.5C2.0508 16.2915 1.24571 17.6259 1.49985 20.5C2.3027 23.7395 3.62435 24.7039 7.49985 25C18.3336 20.6075 24.3033 18.0819 36.4999 14.5L26.4999 14V4.99999C24.5489 1.66684 23.2264 0.855802 20.4999 0.999989C18.2392 1.42777 17.1593 2.33328 15.4999 4.99999Z" fill="#3994B4" stroke="#3994B4"/>
</svg>
