<svg width="158" height="25" viewBox="0 0 158 25" fill="none" xmlns="http://www.w3.org/2000/svg">
<path d="M12.5 0L15.3064 8.63729H24.3882L17.0409 13.9754L19.8473 22.6127L12.5 17.2746L5.15268 22.6127L7.95911 13.9754L0.611794 8.63729H9.69357L12.5 0Z" fill="#FF9900"/>
<path d="M46.5 0L49.3064 8.63729H58.3882L51.0409 13.9754L53.8473 22.6127L46.5 17.2746L39.1527 22.6127L41.9591 13.9754L34.6118 8.63729H43.6936L46.5 0Z" fill="#FF9900"/>
<path d="M77.5 0L80.3064 8.63729H89.3882L82.0409 13.9754L84.8473 22.6127L77.5 17.2746L70.1527 22.6127L72.9591 13.9754L65.6118 8.63729H74.6936L77.5 0Z" fill="#FF9900"/>
<path d="M145.5 0L148.306 8.63729H157.388L150.041 13.9754L152.847 22.6127L145.5 17.2746L138.153 22.6127L140.959 13.9754L133.612 8.63729H142.694L145.5 0Z" fill="#FF9900"/>
<path d="M112.5 0L115.306 8.63729H124.388L117.041 13.9754L119.847 22.6127L112.5 17.2746L105.153 22.6127L107.959 13.9754L100.612 8.63729H109.694L112.5 0Z" fill="#FF9900"/>
</svg>
